<svg width="578" height="751" viewBox="0 0 578 751" fill="none" xmlns="http://www.w3.org/2000/svg">
<g clip-path="url(#clip0_1_4751)">
<g filter="url(#filter0_i_1_4751)">
<path d="M137.403 313.703C179.054 302.549 164.383 174.545 200.566 115.574C216.557 89.51 301.32 100.677 317.687 161.42C327.061 148.605 380.341 115.574 417.008 176.448C418.313 151.529 435.377 106.104 493.19 123.761C496.157 102.046 566.168 69.9305 588.952 133.729C619.203 97.6568 670.83 37.8913 722.092 89.51C775.847 163.912 856.509 70.514 910.767 123.761C939.466 31.031 978.121 18.0319 1051.03 65.0227C1063.84 47.6978 1148.21 -8.43946 1148.21 45.0872C1148.21 65.0228 1148.21 109.004 1148.21 191.239C1148.21 191.239 480.603 191.24 52.8294 191.24C-13.4134 195.22 11.2354 347.492 137.403 313.703Z" fill="#D49E14"/>
</g>
</g>
<g clip-path="url(#clip1_1_4751)">
<g filter="url(#filter1_i_1_4751)">
<path d="M114.903 292.249C156.554 281.095 141.883 153.091 178.066 94.1195C194.057 68.0559 278.82 79.2225 295.187 139.966C304.561 127.15 357.841 94.1194 394.508 154.994C395.813 130.074 412.877 84.65 470.69 102.307C473.657 80.5917 543.668 48.4764 566.452 112.275C582.515 157.255 568.435 177.911 619.698 229.53C673.453 303.932 834.009 49.0599 888.267 102.307C916.966 9.57685 955.621 -3.42221 1028.53 43.5686C1041.34 26.2437 1125.71 -29.8936 1125.71 23.6331C1125.71 43.5687 1125.71 87.5497 1125.71 169.785C1125.71 169.785 458.103 169.785 30.3294 169.786C-35.9134 173.766 -11.2646 326.038 114.903 292.249Z" fill="#D49E14"/>
</g>
</g>
<g clip-path="url(#clip2_1_4751)">
<g filter="url(#filter2_i_1_4751)">
<path d="M153.823 192.977C142.669 234.628 55.976 236.215 92.9486 300.385C92.9486 300.385 26.6581 398.638 138.795 417.506C125.98 426.88 92.9486 480.16 153.823 516.827C128.904 518.132 83.4792 535.196 101.136 593.009C79.4209 595.976 47.3056 665.987 111.104 688.771C75.0319 719.023 15.2664 770.649 66.8851 821.911C141.287 875.666 47.8892 956.328 101.136 1010.59C8.40609 1039.28 -4.59297 1077.94 42.3978 1150.85C25.0729 1163.66 -31.0643 1248.03 22.4623 1248.03C42.3979 1248.03 86.3789 1248.03 168.615 1248.03L168.615 152.648L153.823 192.977Z" fill="#D49E14"/>
</g>
</g>
<g clip-path="url(#clip3_1_4751)">
<g filter="url(#filter3_i_1_4751)">
<path d="M24.3536 152.951C13.1992 194.602 15.2093 282.117 112.324 300.344C112.324 300.344 46.0331 398.598 158.17 417.465C145.355 426.84 112.324 480.12 173.198 516.787C148.279 518.092 102.854 535.156 120.511 592.969C98.7959 595.935 66.6806 665.947 130.479 688.73C94.4069 718.982 34.6414 770.608 86.2601 821.871C160.662 875.625 67.2642 956.288 120.511 1010.55C27.7811 1039.24 14.782 1077.9 61.7728 1150.81C44.4479 1163.62 -11.6893 1247.99 41.8373 1247.99C61.7729 1247.99 105.754 1247.99 187.99 1247.99C187.99 1247.99 187.99 580.382 187.99 152.608C191.97 86.3652 58.142 26.7836 24.3536 152.951Z" fill="#D49E14"/>
</g>
</g>
<g clip-path="url(#clip4_1_4751)">
<g filter="url(#filter4_i_1_4751)">
<path d="M178.701 672.396C220.352 683.551 307.868 681.541 326.095 584.426C326.095 584.426 424.348 650.717 443.216 538.58C452.59 551.395 505.87 584.426 542.537 523.552C543.843 548.471 560.906 593.896 618.719 576.239C621.686 597.954 691.697 630.069 714.481 566.271C744.733 602.343 796.359 662.109 847.621 610.49C901.376 536.088 982.038 629.486 1036.3 576.239C1064.99 668.969 1103.65 681.968 1176.56 634.977C1189.37 652.302 1273.74 708.439 1273.74 654.913C1273.74 634.977 1273.74 590.996 1273.74 508.761C1273.74 508.761 606.133 508.76 178.358 508.76C112.116 504.78 52.5341 638.608 178.701 672.396Z" fill="#D49E14"/>
</g>
</g>
<g clip-path="url(#clip5_1_4751)">
<g filter="url(#filter5_i_1_4751)">
<path d="M255.403 459.297C297.054 470.451 282.383 598.455 318.566 657.426C334.558 683.49 419.321 672.323 435.687 611.58C445.062 624.395 498.342 657.426 535.009 596.552C536.314 621.471 553.378 666.896 611.191 649.239C614.157 670.954 684.169 703.069 706.952 639.271C737.204 675.343 788.83 735.109 840.093 683.49C893.847 609.088 974.51 702.486 1028.77 649.239C1057.47 741.969 1096.12 754.968 1169.03 707.977C1181.84 725.302 1266.21 781.439 1266.21 727.913C1266.21 707.977 1266.21 663.996 1266.21 581.761C1266.21 581.761 598.604 581.76 170.83 581.76C104.587 577.78 129.236 425.508 255.403 459.297Z" fill="#D49E14"/>
</g>
</g>
<defs>
<filter id="filter0_i_1_4751" x="17.1191" y="22.5" width="1135.09" height="300.092" filterUnits="userSpaceOnUse" color-interpolation-filters="sRGB">
<feFlood flood-opacity="0" result="BackgroundImageFix"/>
<feBlend mode="normal" in="SourceGraphic" in2="BackgroundImageFix" result="shape"/>
<feColorMatrix in="SourceAlpha" type="matrix" values="0 0 0 0 0 0 0 0 0 0 0 0 0 0 0 0 0 0 127 0" result="hardAlpha"/>
<feOffset dx="5" dy="19"/>
<feGaussianBlur stdDeviation="2"/>
<feComposite in2="hardAlpha" operator="arithmetic" k2="-1" k3="1"/>
<feColorMatrix type="matrix" values="0 0 0 0 0.630833 0 0 0 0 0.470414 0 0 0 0 0.0604547 0 0 0 1 0"/>
<feBlend mode="normal" in2="shape" result="effect1_innerShadow_1_4751"/>
</filter>
<filter id="filter1_i_1_4751" x="-5.38086" y="1.0459" width="1135.09" height="300.092" filterUnits="userSpaceOnUse" color-interpolation-filters="sRGB">
<feFlood flood-opacity="0" result="BackgroundImageFix"/>
<feBlend mode="normal" in="SourceGraphic" in2="BackgroundImageFix" result="shape"/>
<feColorMatrix in="SourceAlpha" type="matrix" values="0 0 0 0 0 0 0 0 0 0 0 0 0 0 0 0 0 0 127 0" result="hardAlpha"/>
<feOffset dx="5" dy="19"/>
<feGaussianBlur stdDeviation="2"/>
<feComposite in2="hardAlpha" operator="arithmetic" k2="-1" k3="1"/>
<feColorMatrix type="matrix" values="0 0 0 0 0.630833 0 0 0 0 0.470414 0 0 0 0 0.0604547 0 0 0 1 0"/>
<feBlend mode="normal" in2="shape" result="effect1_innerShadow_1_4751"/>
</filter>
<filter id="filter2_i_1_4751" x="-0.125" y="152.648" width="172.739" height="1099.38" filterUnits="userSpaceOnUse" color-interpolation-filters="sRGB">
<feFlood flood-opacity="0" result="BackgroundImageFix"/>
<feBlend mode="normal" in="SourceGraphic" in2="BackgroundImageFix" result="shape"/>
<feColorMatrix in="SourceAlpha" type="matrix" values="0 0 0 0 0 0 0 0 0 0 0 0 0 0 0 0 0 0 127 0" result="hardAlpha"/>
<feOffset dx="5" dy="19"/>
<feGaussianBlur stdDeviation="2"/>
<feComposite in2="hardAlpha" operator="arithmetic" k2="-1" k3="1"/>
<feColorMatrix type="matrix" values="0 0 0 0 0.630833 0 0 0 0 0.470414 0 0 0 0 0.0604547 0 0 0 1 0"/>
<feBlend mode="normal" in2="shape" result="effect1_innerShadow_1_4751"/>
</filter>
<filter id="filter3_i_1_4751" x="19.25" y="78.9897" width="172.826" height="1173" filterUnits="userSpaceOnUse" color-interpolation-filters="sRGB">
<feFlood flood-opacity="0" result="BackgroundImageFix"/>
<feBlend mode="normal" in="SourceGraphic" in2="BackgroundImageFix" result="shape"/>
<feColorMatrix in="SourceAlpha" type="matrix" values="0 0 0 0 0 0 0 0 0 0 0 0 0 0 0 0 0 0 127 0" result="hardAlpha"/>
<feOffset dx="5" dy="19"/>
<feGaussianBlur stdDeviation="2"/>
<feComposite in2="hardAlpha" operator="arithmetic" k2="-1" k3="1"/>
<feColorMatrix type="matrix" values="0 0 0 0 0.630833 0 0 0 0 0.470414 0 0 0 0 0.0604547 0 0 0 1 0"/>
<feBlend mode="normal" in2="shape" result="effect1_innerShadow_1_4751"/>
</filter>
<filter id="filter4_i_1_4751" x="104.74" y="504.673" width="1173" height="172.827" filterUnits="userSpaceOnUse" color-interpolation-filters="sRGB">
<feFlood flood-opacity="0" result="BackgroundImageFix"/>
<feBlend mode="normal" in="SourceGraphic" in2="BackgroundImageFix" result="shape"/>
<feColorMatrix in="SourceAlpha" type="matrix" values="0 0 0 0 0 0 0 0 0 0 0 0 0 0 0 0 0 0 127 0" result="hardAlpha"/>
<feOffset dx="5" dy="-18"/>
<feGaussianBlur stdDeviation="2"/>
<feComposite in2="hardAlpha" operator="arithmetic" k2="-1" k3="1"/>
<feColorMatrix type="matrix" values="0 0 0 0 0.630833 0 0 0 0 0.470414 0 0 0 0 0.0604547 0 0 0 1 0"/>
<feBlend mode="normal" in2="shape" result="effect1_innerShadow_1_4751"/>
</filter>
<filter id="filter5_i_1_4751" x="135.119" y="450.408" width="1135.09" height="300.092" filterUnits="userSpaceOnUse" color-interpolation-filters="sRGB">
<feFlood flood-opacity="0" result="BackgroundImageFix"/>
<feBlend mode="normal" in="SourceGraphic" in2="BackgroundImageFix" result="shape"/>
<feColorMatrix in="SourceAlpha" type="matrix" values="0 0 0 0 0 0 0 0 0 0 0 0 0 0 0 0 0 0 127 0" result="hardAlpha"/>
<feOffset dx="5" dy="-18"/>
<feGaussianBlur stdDeviation="2"/>
<feComposite in2="hardAlpha" operator="arithmetic" k2="-1" k3="1"/>
<feColorMatrix type="matrix" values="0 0 0 0 0.630833 0 0 0 0 0.470414 0 0 0 0 0.0604547 0 0 0 1 0"/>
<feBlend mode="normal" in2="shape" result="effect1_innerShadow_1_4751"/>
</filter>
<clipPath id="clip0_1_4751">
<rect width="170" height="232" fill="white" transform="matrix(1.39071e-07 1 1 -1.39071e-07 185.75 22)"/>
</clipPath>
<clipPath id="clip1_1_4751">
<rect width="170" height="182" fill="white" transform="matrix(1.39071e-07 1 1 -1.39071e-07 395.25 0.545898)"/>
</clipPath>
<clipPath id="clip2_1_4751">
<rect width="169" height="217" fill="white" transform="translate(0 291)"/>
</clipPath>
<clipPath id="clip3_1_4751">
<rect width="170" height="222" fill="white" transform="translate(18.75 78)"/>
</clipPath>
<clipPath id="clip4_1_4751">
<rect width="170" height="222" fill="white" transform="translate(103.75 678) rotate(-90)"/>
</clipPath>
<clipPath id="clip5_1_4751">
<rect width="170" height="232" fill="white" transform="translate(303.75 751) rotate(-90)"/>
</clipPath>
</defs>
</svg>
